<?xml version="1.0" encoding="utf-8"?>
<!-- Generator: Adobe Illustrator 16.0.0, SVG Export Plug-In . SVG Version: 6.00 Build 0)  -->
<!DOCTYPE svg PUBLIC "-//W3C//DTD SVG 1.1//EN" "http://www.w3.org/Graphics/SVG/1.1/DTD/svg11.dtd">
<svg version="1.1" id="Layer_1" xmlns="http://www.w3.org/2000/svg" xmlns:xlink="http://www.w3.org/1999/xlink" x="0px" y="0px"
	 width="96px" height="96px" viewBox="0 -24 96 96" enable-background="new 0 -24 96 96" xml:space="preserve">
<title>usa</title>
<g>
	<path fill="#B41F30" d="M96-8c0-2.21-1.789-4-4-4H40v40H0v28c0,2.211,1.79,4,4,4h88c2.211,0,4-1.789,4-4V-8z"/>
	<rect x="40" y="-4" fill="#E6E6E6" width="56" height="8"/>
	<rect x="40" y="12" fill="#E6E6E6" width="56" height="8"/>
	<polygon fill="#E6E6E6" points="0,28 0,36 96,36 96,28 40,28 	"/>
	<rect y="44" fill="#E6E6E6" width="96" height="8"/>
	<path fill="#00256A" d="M50,28H0V-8c0-2.21,2.237-4,5-4h45V28z"/>
	<polygon fill="#FFFFFF" points="3.499,-9.881 2.907,-8.601 1.5,-8.601 2.528,-7.532 2.148,-5.99 3.499,-6.756 4.851,-5.99 
		4.47,-7.532 5.5,-8.601 4.09,-8.601 	"/>
	<polygon fill="#FFFFFF" points="7.498,-5.787 6.906,-4.507 5.5,-4.507 6.527,-3.438 6.148,-1.896 7.498,-2.662 8.85,-1.896 
		8.469,-3.438 9.5,-4.507 8.09,-4.507 	"/>
	<polygon fill="#FFFFFF" points="11.998,-9.881 11.406,-8.601 10,-8.601 11.027,-7.532 10.648,-5.99 11.998,-6.756 13.35,-5.99 
		12.969,-7.532 14,-8.601 12.59,-8.601 	"/>
	<polygon fill="#FFFFFF" points="15.998,-5.936 15.406,-4.655 14,-4.655 15.027,-3.587 14.648,-2.045 15.998,-2.811 17.35,-2.045 
		16.969,-3.587 18,-4.655 16.59,-4.655 	"/>
	<polygon fill="#FFFFFF" points="20.498,-9.881 19.906,-8.601 18.5,-8.601 19.527,-7.532 19.148,-5.99 20.498,-6.756 21.85,-5.99 
		21.469,-7.532 22.5,-8.601 21.09,-8.601 	"/>
	<polygon fill="#FFFFFF" points="24.498,-5.787 23.906,-4.507 22.5,-4.507 23.527,-3.438 23.148,-1.896 24.498,-2.662 25.85,-1.896 
		25.469,-3.438 26.5,-4.507 25.09,-4.507 	"/>
	<polygon fill="#FFFFFF" points="29.248,-9.881 28.656,-8.601 27.25,-8.601 28.277,-7.532 27.898,-5.99 29.248,-6.756 30.6,-5.99 
		30.219,-7.532 31.25,-8.601 29.84,-8.601 	"/>
	<polygon fill="#FFFFFF" points="33.498,-5.787 32.906,-4.507 31.5,-4.507 32.527,-3.438 32.148,-1.896 33.498,-2.662 34.85,-1.896 
		34.469,-3.438 35.5,-4.507 34.09,-4.507 	"/>
	<polygon fill="#FFFFFF" points="37.748,-9.732 37.156,-8.452 35.75,-8.452 36.777,-7.384 36.398,-5.842 37.748,-6.607 39.1,-5.842 
		38.719,-7.384 39.75,-8.452 38.34,-8.452 	"/>
	<polygon fill="#FFFFFF" points="41.998,-5.936 41.406,-4.655 40,-4.655 41.027,-3.587 40.648,-2.045 41.998,-2.811 43.35,-2.045 
		42.969,-3.587 44,-4.655 42.59,-4.655 	"/>
	<polygon fill="#FFFFFF" points="46.311,-9.881 45.719,-8.601 44.313,-8.601 45.34,-7.532 44.961,-5.99 46.311,-6.756 47.662,-5.99 
		47.281,-7.532 48.313,-8.601 46.902,-8.601 	"/>
	<polygon fill="#FFFFFF" points="3.499,-1.896 2.907,-0.616 1.5,-0.616 2.528,0.452 2.148,1.994 3.499,1.229 4.851,1.994 
		4.47,0.452 5.5,-0.616 4.09,-0.616 	"/>
	<polygon fill="#FFFFFF" points="7.498,2.197 6.906,3.478 5.5,3.478 6.527,4.546 6.148,6.088 7.498,5.322 8.85,6.088 8.469,4.546 
		9.5,3.478 8.09,3.478 	"/>
	<polygon fill="#FFFFFF" points="11.998,-1.896 11.406,-0.616 10,-0.616 11.027,0.452 10.648,1.994 11.998,1.229 13.35,1.994 
		12.969,0.452 14,-0.616 12.59,-0.616 	"/>
	<polygon fill="#FFFFFF" points="15.998,2.049 15.406,3.329 14,3.329 15.027,4.397 14.648,5.939 15.998,5.174 17.35,5.939 
		16.969,4.397 18,3.329 16.59,3.329 	"/>
	<polygon fill="#FFFFFF" points="20.498,-1.896 19.906,-0.616 18.5,-0.616 19.527,0.452 19.148,1.994 20.498,1.229 21.85,1.994 
		21.469,0.452 22.5,-0.616 21.09,-0.616 	"/>
	<polygon fill="#FFFFFF" points="24.498,2.197 23.906,3.478 22.5,3.478 23.527,4.546 23.148,6.088 24.498,5.322 25.85,6.088 
		25.469,4.546 26.5,3.478 25.09,3.478 	"/>
	<polygon fill="#FFFFFF" points="29.248,-1.896 28.656,-0.616 27.25,-0.616 28.277,0.452 27.898,1.994 29.248,1.229 30.6,1.994 
		30.219,0.452 31.25,-0.616 29.84,-0.616 	"/>
	<polygon fill="#FFFFFF" points="33.498,2.197 32.906,3.478 31.5,3.478 32.527,4.546 32.148,6.088 33.498,5.322 34.85,6.088 
		34.469,4.546 35.5,3.478 34.09,3.478 	"/>
	<polygon fill="#FFFFFF" points="37.748,-1.748 37.156,-0.468 35.75,-0.468 36.777,0.601 36.398,2.143 37.748,1.377 39.1,2.143 
		38.719,0.601 39.75,-0.468 38.34,-0.468 	"/>
	<polygon fill="#FFFFFF" points="41.998,2.049 41.406,3.329 40,3.329 41.027,4.397 40.648,5.939 41.998,5.174 43.35,5.939 
		42.969,4.397 44,3.329 42.59,3.329 	"/>
	<polygon fill="#FFFFFF" points="46.311,-1.896 45.719,-0.616 44.313,-0.616 45.34,0.452 44.961,1.994 46.311,1.229 47.662,1.994 
		47.281,0.452 48.313,-0.616 46.902,-0.616 	"/>
	<polygon fill="#FFFFFF" points="3.499,6.088 2.907,7.368 1.5,7.368 2.528,8.437 2.148,9.979 3.499,9.213 4.851,9.979 4.47,8.437 
		5.5,7.368 4.09,7.368 	"/>
	<polygon fill="#FFFFFF" points="7.498,10.182 6.906,11.462 5.5,11.462 6.527,12.53 6.148,14.072 7.498,13.307 8.85,14.072 
		8.469,12.53 9.5,11.462 8.09,11.462 	"/>
	<polygon fill="#FFFFFF" points="11.998,6.088 11.406,7.368 10,7.368 11.027,8.437 10.648,9.979 11.998,9.213 13.35,9.979 
		12.969,8.437 14,7.368 12.59,7.368 	"/>
	<polygon fill="#FFFFFF" points="15.998,10.033 15.406,11.313 14,11.313 15.027,12.382 14.648,13.924 15.998,13.158 17.35,13.924 
		16.969,12.382 18,11.313 16.59,11.313 	"/>
	<polygon fill="#FFFFFF" points="20.498,6.088 19.906,7.368 18.5,7.368 19.527,8.437 19.148,9.979 20.498,9.213 21.85,9.979 
		21.469,8.437 22.5,7.368 21.09,7.368 	"/>
	<polygon fill="#FFFFFF" points="24.498,10.182 23.906,11.462 22.5,11.462 23.527,12.53 23.148,14.072 24.498,13.307 25.85,14.072 
		25.469,12.53 26.5,11.462 25.09,11.462 	"/>
	<polygon fill="#FFFFFF" points="29.248,6.088 28.656,7.368 27.25,7.368 28.277,8.437 27.898,9.979 29.248,9.213 30.6,9.979 
		30.219,8.437 31.25,7.368 29.84,7.368 	"/>
	<polygon fill="#FFFFFF" points="33.498,10.182 32.906,11.462 31.5,11.462 32.527,12.53 32.148,14.072 33.498,13.307 34.85,14.072 
		34.469,12.53 35.5,11.462 34.09,11.462 	"/>
	<polygon fill="#FFFFFF" points="37.748,6.236 37.156,7.517 35.75,7.517 36.777,8.585 36.398,10.127 37.748,9.361 39.1,10.127 
		38.719,8.585 39.75,7.517 38.34,7.517 	"/>
	<polygon fill="#FFFFFF" points="41.998,10.033 41.406,11.313 40,11.313 41.027,12.382 40.648,13.924 41.998,13.158 43.35,13.924 
		42.969,12.382 44,11.313 42.59,11.313 	"/>
	<polygon fill="#FFFFFF" points="46.311,6.088 45.719,7.368 44.313,7.368 45.34,8.437 44.961,9.979 46.311,9.213 47.662,9.979 
		47.281,8.437 48.313,7.368 46.902,7.368 	"/>
	<polygon fill="#FFFFFF" points="3.499,14.072 2.907,15.353 1.5,15.353 2.528,16.421 2.148,17.963 3.499,17.197 4.851,17.963 
		4.47,16.421 5.5,15.353 4.09,15.353 	"/>
	<polygon fill="#FFFFFF" points="7.498,18.166 6.906,19.446 5.5,19.446 6.527,20.515 6.148,22.057 7.498,21.291 8.85,22.057 
		8.469,20.515 9.5,19.446 8.09,19.446 	"/>
	<polygon fill="#FFFFFF" points="11.998,14.072 11.406,15.353 10,15.353 11.027,16.421 10.648,17.963 11.998,17.197 13.35,17.963 
		12.969,16.421 14,15.353 12.59,15.353 	"/>
	<polygon fill="#FFFFFF" points="15.998,18.018 15.406,19.298 14,19.298 15.027,20.366 14.648,21.908 15.998,21.143 17.35,21.908 
		16.969,20.366 18,19.298 16.59,19.298 	"/>
	<polygon fill="#FFFFFF" points="20.498,14.072 19.906,15.353 18.5,15.353 19.527,16.421 19.148,17.963 20.498,17.197 21.85,17.963 
		21.469,16.421 22.5,15.353 21.09,15.353 	"/>
	<polygon fill="#FFFFFF" points="24.498,18.166 23.906,19.446 22.5,19.446 23.527,20.515 23.148,22.057 24.498,21.291 25.85,22.057 
		25.469,20.515 26.5,19.446 25.09,19.446 	"/>
	<polygon fill="#FFFFFF" points="29.248,14.072 28.656,15.353 27.25,15.353 28.277,16.421 27.898,17.963 29.248,17.197 30.6,17.963 
		30.219,16.421 31.25,15.353 29.84,15.353 	"/>
	<polygon fill="#FFFFFF" points="33.498,18.166 32.906,19.446 31.5,19.446 32.527,20.515 32.148,22.057 33.498,21.291 34.85,22.057 
		34.469,20.515 35.5,19.446 34.09,19.446 	"/>
	<polygon fill="#FFFFFF" points="37.748,14.221 37.156,15.501 35.75,15.501 36.777,16.569 36.398,18.111 37.748,17.346 39.1,18.111 
		38.719,16.569 39.75,15.501 38.34,15.501 	"/>
	<polygon fill="#FFFFFF" points="41.998,18.018 41.406,19.298 40,19.298 41.027,20.366 40.648,21.908 41.998,21.143 43.35,21.908 
		42.969,20.366 44,19.298 42.59,19.298 	"/>
	<polygon fill="#FFFFFF" points="46.311,14.072 45.719,15.353 44.313,15.353 45.34,16.421 44.961,17.963 46.311,17.197 
		47.662,17.963 47.281,16.421 48.313,15.353 46.902,15.353 	"/>
	<polygon fill="#FFFFFF" points="3.499,21.98 2.907,23.261 1.5,23.261 2.528,24.329 2.148,25.871 3.499,25.105 4.851,25.871 
		4.47,24.329 5.5,23.261 4.09,23.261 	"/>
	<polygon fill="#FFFFFF" points="11.998,21.98 11.406,23.261 10,23.261 11.027,24.329 10.648,25.871 11.998,25.105 13.35,25.871 
		12.969,24.329 14,23.261 12.59,23.261 	"/>
	<polygon fill="#FFFFFF" points="20.498,21.98 19.906,23.261 18.5,23.261 19.527,24.329 19.148,25.871 20.498,25.105 21.85,25.871 
		21.469,24.329 22.5,23.261 21.09,23.261 	"/>
	<polygon fill="#FFFFFF" points="29.248,21.98 28.656,23.261 27.25,23.261 28.277,24.329 27.898,25.871 29.248,25.105 30.6,25.871 
		30.219,24.329 31.25,23.261 29.84,23.261 	"/>
	<polygon fill="#FFFFFF" points="37.748,22.129 37.156,23.409 35.75,23.409 36.777,24.478 36.398,26.02 37.748,25.254 39.1,26.02 
		38.719,24.478 39.75,23.409 38.34,23.409 	"/>
	<polygon fill="#FFFFFF" points="46.311,21.98 45.719,23.261 44.313,23.261 45.34,24.329 44.961,25.871 46.311,25.105 
		47.662,25.871 47.281,24.329 48.313,23.261 46.902,23.261 	"/>
</g>
</svg>
