<svg version="1.1" id="Layer_1" xmlns="http://www.w3.org/2000/svg" xmlns:xlink="http://www.w3.org/1999/xlink" x="0px" y="0px" width="100%" viewBox="0 0 52 50" enable-background="new 0 0 52 50" xml:space="preserve">
<path fill="#21397D" opacity="1.000000" stroke="none" d="
M26.000027,51.000000 
	C17.333363,51.000000 9.166696,51.000000 1.000021,51.000000 
	C1.000014,34.333344 1.000014,17.666685 1.000007,1.000021 
	C18.333323,1.000014 35.666645,1.000014 52.999977,1.000007 
	C52.999985,17.666656 52.999985,34.333313 52.999992,50.999985 
	C44.166676,51.000000 35.333347,51.000000 26.000027,51.000000 
M41.999016,21.601574 
	C41.880112,13.146926 35.285480,5.092124 27.458046,4.025826 
	C18.420597,2.794693 8.166545,6.818103 6.315084,17.254930 
	C4.877062,25.361164 6.301499,32.660385 13.398337,37.863014 
	C18.842543,41.854115 25.424051,42.740349 30.879803,39.703236 
	C37.098087,36.241634 42.936256,31.205856 41.999016,21.601574 
z"></path>
<path fill="#FFFFFF" opacity="1.000000" stroke="none" d="
M41.998993,22.049389 
	C42.936256,31.205856 37.098087,36.241634 30.879803,39.703236 
	C25.424051,42.740349 18.842543,41.854115 13.398337,37.863014 
	C6.301499,32.660385 4.877062,25.361164 6.315084,17.254930 
	C8.166545,6.818103 18.420597,2.794693 27.458046,4.025826 
	C35.285480,5.092124 41.880112,13.146926 41.998993,22.049389 
z"></path>
</svg>