<?xml version="1.0" encoding="UTF-8"?><svg id="Layer_1" xmlns="http://www.w3.org/2000/svg" viewBox="0 0 166 161"><defs><style>.cls-1{fill:aqua;}.cls-2{fill:#21397D;}.cls-3{fill:#71ffd1;}.cls-4{fill:none;stroke:#71ffd1;stroke-miterlimit:10;}</style></defs><circle class="cls-2" cx="83" cy="80.5" r="67.04"></circle><circle class="cls-4" cx="83.18" cy="80.68" r="56.87"></circle><path class="cls-3" d="M60.51,60.81c-1.28,4.83-10.65,34.21-13.95,44.53-.43,1.35,.97,2.54,2.24,1.91l20.08-9.95c.4-.2,.7-.56,.83-.99l5.76-19.89c.12-.43,.42-.79,.83-.99l18.69-9.26c.41-.2,.71-.57,.83-1.01l6.24-22.56c.37-1.33-1.01-2.47-2.25-1.86l-38.46,19.06c-.41,.2-.71,.56-.83,1Z"></path><path class="cls-1" d="M78.29,79.43c-1.3,4.87-10.58,34-13.91,44.41-.44,1.39,1,2.61,2.3,1.97l19.96-9.89c.41-.2,.72-.57,.85-1.02l5.75-19.85c.13-.44,.44-.81,.85-1.02l18.65-9.24c.42-.21,.73-.58,.86-1.04l6.21-22.44c.38-1.37-1.04-2.55-2.32-1.91l-38.35,19c-.42,.21-.73,.57-.85,1.03Z"></path></svg>